<svg width="25" height="26" viewBox="0 0 25 26" fill="none" xmlns="http://www.w3.org/2000/svg">
<path d="M1.95833 19.25C1.68681 19.25 1.45936 19.15 1.276 18.95C1.09264 18.75 1.00064 18.5028 1 18.2083V17.6094C1 16.8628 1.35139 16.2552 2.05417 15.7865C2.75694 15.3177 3.68333 15.0833 4.83333 15.0833C5.04097 15.0833 5.24062 15.0878 5.43229 15.0969C5.62396 15.1059 5.80764 15.1274 5.98333 15.1615C5.75972 15.526 5.59201 15.908 5.48021 16.3073C5.3684 16.7066 5.3125 17.1233 5.3125 17.5573V19.25H1.95833ZM7.70833 19.25C7.43681 19.25 7.20936 19.15 7.026 18.95C6.84264 18.75 6.75064 18.5028 6.75 18.2083V17.5573C6.75 17.0017 6.88992 16.4937 7.16975 16.0333C7.44958 15.5729 7.84474 15.1694 8.35521 14.8229C8.86568 14.4764 9.47678 14.216 10.1885 14.0417C10.9002 13.8674 11.6707 13.7806 12.5 13.7812C13.3465 13.7812 14.1253 13.8681 14.8364 14.0417C15.5475 14.2153 16.1583 14.4757 16.6687 14.8229C17.1792 15.1701 17.5705 15.574 17.8427 16.0344C18.1149 16.4948 18.2506 17.0024 18.25 17.5573V18.2083C18.25 18.5035 18.1583 18.751 17.975 18.951C17.7916 19.151 17.5638 19.2507 17.2917 19.25H7.70833ZM19.6875 19.25V17.5573C19.6875 17.1059 19.6357 16.6806 19.5322 16.2812C19.4287 15.8819 19.2729 15.5087 19.0646 15.1615C19.2403 15.1267 19.4201 15.1052 19.6041 15.0969C19.7881 15.0885 19.9756 15.084 20.1667 15.0833C21.3167 15.0833 22.2431 15.3135 22.9458 15.774C23.6486 16.2344 24 16.8462 24 17.6094V18.2083C24 18.5035 23.908 18.751 23.724 18.951C23.54 19.151 23.3126 19.2507 23.0417 19.25H19.6875ZM4.83333 14.0417C4.30625 14.0417 3.85519 13.8378 3.48017 13.4302C3.10514 13.0226 2.91731 12.5319 2.91667 11.9583C2.91667 11.3681 3.1045 10.8733 3.48017 10.474C3.85583 10.0747 4.30689 9.875 4.83333 9.875C5.37639 9.875 5.8316 10.0747 6.19896 10.474C6.56632 10.8733 6.75 11.3681 6.75 11.9583C6.75 12.5312 6.56632 13.0219 6.19896 13.4302C5.8316 13.8385 5.37639 14.0424 4.83333 14.0417ZM20.1667 14.0417C19.6396 14.0417 19.1885 13.8378 18.8135 13.4302C18.4385 13.0226 18.2506 12.5319 18.25 11.9583C18.25 11.3681 18.4378 10.8733 18.8135 10.474C19.1892 10.0747 19.6402 9.875 20.1667 9.875C20.7097 9.875 21.1649 10.0747 21.5323 10.474C21.8997 10.8733 22.0833 11.3681 22.0833 11.9583C22.0833 12.5312 21.8997 13.0219 21.5323 13.4302C21.1649 13.8385 20.7097 14.0424 20.1667 14.0417ZM12.5 13C11.7014 13 11.0226 12.6962 10.4635 12.0885C9.90451 11.4809 9.625 10.7431 9.625 9.875C9.625 8.98958 9.90451 8.24757 10.4635 7.64896C11.0226 7.05035 11.7014 6.75069 12.5 6.75C13.3146 6.75 13.9976 7.04965 14.5489 7.64896C15.1003 8.24826 15.3756 8.99028 15.375 9.875C15.375 10.7431 15.0996 11.4809 14.5489 12.0885C13.9982 12.6962 13.3152 13 12.5 13Z" fill="#B3B3B3"/>
</svg>
