<svg width="40" height="40" viewBox="0 0 40 40" fill="none" xmlns="http://www.w3.org/2000/svg">
<path d="M18.0884 4.99365L18.5469 5.09556L18.8017 5.29938L18.8527 5.4013V5.91085L18.5979 6.67518L18.5469 6.92996L18.8017 6.98091L19.617 7.38856L20.1775 7.74524L20.8399 8.30575L21.2476 8.81531L21.6043 9.42677L21.8591 10.1401L21.961 10.6497V11.465L21.7571 12.3312L21.4005 13.1465L20.8909 13.8599L20.2285 14.5223L20.9928 14.828L21.5533 15.1338L22.0119 15.4905L22.2667 15.6943V15.7962L22.5215 15.8472L23.5406 15.4905L24.4578 15.2357L25.2731 15.0828L26.445 14.9809H27.5661L28.738 15.0319L29.0947 14.0637L29.2985 13.758L29.4514 13.6051L29.8081 13.5542L30.2157 13.707L30.4196 13.9618V14.4204L30.1138 15.3376L30.0629 15.4395L30.5215 15.5924L31.3877 16.051L31.9482 16.4586L32.5597 17.0191L32.9164 17.5287L33.2731 18.2421L33.4769 18.9554L33.5278 19.8217L33.4259 20.4841L33.1712 21.2484L32.8145 21.9108L32.3049 22.5733L31.8463 22.9809L31.7444 23.0319L32.3559 23.2866L33.0692 23.6433L33.7826 24.2038L34.1903 24.6624L34.5979 25.3758L34.8527 26.0382L35.0055 26.8026L35.0565 27.3121V27.8726L34.9036 28.8917L34.6489 29.6561L34.2412 30.4714L33.7317 31.1847L32.9164 32L32.254 32.5096L31.3877 33.0191L30.2157 33.5287L29.1966 33.8344L28.0247 34.0892L27.2603 34.1911L26.5979 34.2421H25.324L23.8973 34.0892L22.9291 33.8854L22.7762 34.3949L22.1138 35.9745L21.7062 36.8917L21.6043 37.0446L21.3495 36.9937L21.2476 36.8408L21.6552 35.465L22.2157 33.7835V33.6815L20.9419 33.2229L20.6871 33.0701L20.8909 32.5605L21.0947 32.1019L21.3495 32.1529L22.4196 32.5605L22.6234 32.6115L22.7762 32L23.3877 30.1147L23.9992 28.2803L25.0183 25.2739L25.8845 22.828L26.6489 20.637L27.668 17.8344L28.1775 16.4586L28.3304 16.1019H26.6489L25.6298 16.2038L24.5087 16.4077L23.3877 16.7134L23.082 16.8663L23.3368 17.6816L23.4387 18.1401L23.4896 19.1593L23.4387 19.8726L23.1839 20.8917L22.7253 21.8599L22.3176 22.4204L21.7571 23.0828L21.0438 23.6943L20.2794 24.2038L19.3113 24.7134L18.0374 25.172L17.0692 25.4268L16.4068 25.5796V27.5669L16.3049 27.6688L15.5915 27.8217H15.3877L15.2858 27.0573L15.2348 26.4459V25.6815H13.5024L12.2285 25.5287L11.4132 25.3758L11.1584 25.9363L10.6998 27.0573L10.1393 28.3822L10.0374 28.4841L9.78262 28.4331L9.68071 28.2803L10.2412 26.4459L10.6489 25.2229L10.6998 25.121L10.1903 24.9682L9.37498 24.6624L9.1202 24.5096L9.22211 24.2038L9.42593 23.7962L9.52784 23.5414L11.0565 24.051L11.2094 23.4395L12.789 18.7007L13.5024 16.6115L14.5215 13.6561L15.1839 11.8217L16.203 9.01913L16.6106 7.94907L16.7126 7.64333L16.6616 7.59238H14.5724L13.4005 7.74524L12.0756 8.10193L11.1075 8.45862L9.83357 9.07009L8.86542 9.68155L8.05013 10.344L7.64249 10.7007L7.2858 11.0573L6.8272 11.6179L6.31765 12.3312L5.96096 12.9427L5.45141 14.0637L5.09472 15.2866L4.94185 15.9491L4.83994 16.9172V19.0573L4.12657 19.2612H3.82083L3.71892 18.4968L3.66797 17.8344V17.0701L3.76988 15.8981L3.9737 14.7771L4.27943 13.758L4.63612 12.8917L5.14568 11.9236L5.65523 11.2102L6.11383 10.6497L6.57243 10.1401L7.03103 9.68155L7.59154 9.22295L8.35587 8.66244L9.17115 8.15289L10.3431 7.54142L11.3622 7.13378L12.3304 6.82805L13.5024 6.57327L14.7762 6.4204H16.152L17.1202 6.52231L17.4259 5.75798L17.6807 5.24843L17.9355 5.04461L18.0884 4.99365ZM17.8845 6.47136L17.7826 6.62423L17.9355 6.67518L17.8845 6.47136ZM17.4259 7.74524L17.2731 8.00002L17.324 8.10193L17.5278 7.74524H17.4259ZM18.1393 7.94907L17.9355 8.35671L17.4769 9.68155L16.5087 12.2803L15.7444 14.3185L15.082 16.051L13.2476 20.6879L11.8718 24.1019L11.8208 24.3058L12.2285 24.4077L13.4005 24.5605L15.1839 24.6115L15.3368 24.5605L15.6934 22.93L15.9992 22.0128L16.4578 20.9937L16.9164 20.2293L17.5278 19.414L18.1393 18.7516L18.7508 18.1401L19.617 17.4777L20.1266 17.121L20.8909 16.6624L21.2985 16.4077L21.1966 16.2038L20.4833 15.7962L19.668 15.4905L18.6998 15.3376H17.6298L17.5788 14.2675L18.1903 14.2166L18.8527 14.0128L19.4132 13.707L19.9227 13.2994L20.3813 12.7389L20.6871 12.0765L20.8399 11.5159V10.6497L20.738 10.1911L20.3813 9.47773L19.9227 8.96817L19.5151 8.61149L18.8017 8.20384L18.2922 7.94907H18.1393ZM29.3495 15.0828L29.4005 15.1847H29.5533V15.0828H29.3495ZM28.9419 16.3058L28.8399 16.6115L29.0438 16.4077V16.3058H28.9419ZM29.6552 16.5096L29.0947 18.0892L28.2794 20.2803L27.5151 22.3185L26.5979 24.7134L25.6807 27.0573L24.4578 30.1147L23.4896 32.5096L23.3877 32.8153L23.5406 32.9172L24.5597 33.0701L25.2221 33.121H26.9546L28.1775 32.9682L29.5533 32.6115L30.7762 32.1019L31.6934 31.5414L32.3559 31.0319L32.9164 30.4714L33.2731 29.9618L33.6807 29.1465L33.8845 28.4841L33.9355 28.1274V26.9554L33.7826 26.2421L33.375 25.4268L32.9164 24.9172L32.4578 24.5605L31.7444 24.2038L30.8272 23.9491L30.4196 23.8981H29.1966L29.1457 22.828L29.961 22.7261L30.6234 22.4714L31.2348 22.0637L31.7444 21.5542L32.152 20.8917L32.3049 20.4841L32.4068 19.9745V19.2102L32.254 18.5987L31.9482 18.0382L31.4896 17.5287L31.031 17.121L30.3176 16.7134L29.8591 16.5096H29.6552ZM21.961 17.2739L21.1966 17.6816L20.4323 18.1911L19.7189 18.7516L19.2094 19.2102L18.6489 19.7707L18.1393 20.4331L17.6298 21.1975L17.0183 22.4714L16.7126 23.4395L16.5087 24.2548V24.4077L16.9673 24.3567L17.9864 24.051L18.8017 23.7452L19.8718 23.1847L20.4833 22.7261L20.9928 22.2675L21.4005 21.8599L21.91 21.0956L22.1648 20.4841L22.3686 19.7198L22.4196 18.8535L22.3176 18.0382L22.0629 17.2739H21.961Z" fill="white"/>
<path d="M18.4459 0H21.4522L23.1847 0.203822L24.7134 0.509554L26.1911 0.917197L27.414 1.3758L28.6879 1.93631L29.9618 2.59873L30.879 3.15924L31.7452 3.7707L32.3567 4.2293L33.0191 4.78981L33.5796 5.24841L34.7516 6.42038L35.1083 6.82803L35.7197 7.5414L36.3822 8.4586L36.8917 9.22293L37.5032 10.242L38.1147 11.414L38.7771 12.9936L39.2357 14.3694L39.5414 15.5924L39.7962 16.9682L39.949 18.1401L40 18.9045V20.8917L39.8981 22.3694L39.6433 23.8981L39.3885 25.0191L39.0318 26.293L38.4204 27.8726L38.0127 28.7898L37.5032 29.758L36.9936 30.6242L36.2293 31.7452L35.5669 32.6115L35.1083 33.121L34.7516 33.5796H34.6497L34.5478 33.7834L33.7325 34.5987L33.3248 34.9554L32.5605 35.6178L31.5414 36.3822L30.5223 37.0446L29.5541 37.6051L28.7898 38.0127L27.5159 38.5732L26.293 39.0318L24.9172 39.4395L23.6943 39.6943L22.3694 39.8981L21.0446 40H18.9554L17.2229 39.8471L16 39.6433L14.4713 39.2866L12.9427 38.7771L11.6178 38.2166L10.6497 37.758L9.73248 37.2484L8.86624 36.6879L8 36.0764L7.28662 35.5159L6.52229 34.8535L6.06369 34.3949L5.70701 34.0892L5.35032 33.6815L4.94268 33.2739L4.48408 32.7134L3.87261 31.949L3.15924 30.9299L2.49682 29.8089L1.83439 28.535L1.17197 26.9554L0.764331 25.7325L0.407643 24.3567L0.152866 22.9809L0 21.5541V18.3949L0.101911 17.3758L0.356688 15.8981L0.764331 14.2675L1.17197 13.0446L1.68153 11.8217L2.29299 10.5478L3.10828 9.17197L3.7707 8.20382L4.28025 7.5414L4.84076 6.87898L5.96178 5.65605L6.47134 5.19745L7.0828 4.63694L7.79618 4.07643L8.71338 3.41401L9.8344 2.70064L11.1592 1.98726L12.6369 1.32484L13.9618 0.866242L15.4395 0.458599L16.7643 0.203822L18.4459 0ZM18.9045 1.07006L17.6815 1.17197L16.1529 1.42675L14.879 1.73248L13.9108 2.03822L12.7898 2.44586L11.5669 3.00637L10.5987 3.51592L9.68153 4.07643L8.81529 4.6879L7.89809 5.40127L7.33758 5.91083L6.92994 6.26752L5.91083 7.28662L5.45223 7.84713L4.94268 8.4586L4.28025 9.3758L3.66879 10.3439L3.05732 11.465L2.54777 12.535L2.03822 13.8599L1.63057 15.1847L1.32484 16.6115L1.12102 17.9873L1.01911 19.2611V20.7898L1.12102 21.9618L1.32484 23.3885L1.63057 24.7643L2.03822 26.1401L2.44586 27.2102L3.00637 28.4331L3.51592 29.4013L4.07643 30.3185L4.58599 31.0318L5.04459 31.6433L5.50318 32.2038L5.96178 32.7134L6.31847 33.121L7.18471 33.9873L7.59236 34.3439L8.40764 35.0064L9.17197 35.5669L9.93631 36.0764L10.9045 36.6369L11.8726 37.1465L13.4522 37.8089L14.7261 38.2166L15.949 38.5223L17.3758 38.7771L18.8535 38.9299H20.9936L22.5732 38.7771L24 38.5223L25.4268 38.1656L26.9045 37.6561L28.3822 36.9936L29.4522 36.4331L30.5732 35.7197L31.5414 35.0064L32.1019 34.5478L32.8153 33.9363L33.172 33.5796L33.5287 33.2739L33.8853 32.8662L34.4459 32.2548L34.9045 31.6943L35.6178 30.7261L36.1783 29.8599L36.7898 28.7898L37.4013 27.5159L37.9108 26.1911L38.3185 24.8153L38.5732 23.7452L38.7771 22.5223L38.9299 20.8408V19.1592L38.7771 17.4777L38.5223 16L38.1147 14.4713L37.707 13.2484L37.1975 12.0764L36.7898 11.2611L36.3312 10.3949L35.7197 9.42675L35.0064 8.4586L34.3439 7.64331L33.7834 7.03185L32.6115 5.85987L32.051 5.40127L31.2866 4.78981L30.2675 4.07643L29.1465 3.41401L27.9745 2.80255L26.4968 2.19108L25.0701 1.73248L23.5924 1.3758L21.8089 1.12102L20.9427 1.07006H18.9045Z" fill="white"/>
</svg>
