<svg width="25" height="26" viewBox="0 0 25 26" fill="none" xmlns="http://www.w3.org/2000/svg">
<path d="M4.16602 4.66675H10.416V10.9167H4.16602V4.66675ZM14.5827 4.66675H20.8327V10.9167H14.5827V4.66675ZM4.16602 15.0834H10.416V21.3334H4.16602V15.0834ZM14.5827 18.2084C14.5827 19.0372 14.9119 19.8321 15.498 20.4181C16.084 21.0042 16.8789 21.3334 17.7077 21.3334C18.5365 21.3334 19.3313 21.0042 19.9174 20.4181C20.5034 19.8321 20.8327 19.0372 20.8327 18.2084C20.8327 17.3796 20.5034 16.5848 19.9174 15.9987C19.3313 15.4127 18.5365 15.0834 17.7077 15.0834C16.8789 15.0834 16.084 15.4127 15.498 15.9987C14.9119 16.5848 14.5827 17.3796 14.5827 18.2084Z" stroke="#B3B3B3" stroke-width="2" stroke-linecap="round" stroke-linejoin="round"/>
</svg>
