<svg width="25" height="25" viewBox="0 0 25 25" fill="none" xmlns="http://www.w3.org/2000/svg">
<path fill-rule="evenodd" clip-rule="evenodd" d="M7.55303 6.90733V5.68858C7.55318 5.25214 7.7099 4.83024 7.99471 4.49955C8.27952 4.16887 8.67353 3.95133 9.10512 3.88649L10.376 3.69587C11.7847 3.48452 13.2172 3.48452 14.6259 3.69587L15.8968 3.88649C16.3284 3.95133 16.7224 4.16887 17.0072 4.49955C17.292 4.83024 17.4487 5.25214 17.4489 5.68858V6.90733L19.2343 7.05108C19.8986 7.10474 20.5257 7.37958 21.0153 7.83166C21.505 8.28374 21.8289 8.88694 21.9353 9.54483C22.4199 12.5371 22.4199 15.5879 21.9353 18.5802C21.8289 19.2381 21.505 19.8413 21.0153 20.2934C20.5257 20.7455 19.8986 21.0203 19.2343 21.074L17.2843 21.2302C14.1006 21.4872 10.9013 21.4872 7.71762 21.2302L5.76762 21.074C5.10334 21.0203 4.47625 20.7455 3.98659 20.2934C3.49694 19.8413 3.173 19.2381 3.06658 18.5802C2.58197 15.5879 2.58197 12.5371 3.06658 9.54483C3.17321 8.88713 3.49724 8.28417 3.98688 7.83229C4.47651 7.38042 5.10349 7.10573 5.76762 7.05212L7.55303 6.90733ZM10.6082 5.24066C11.863 5.05246 13.1389 5.05246 14.3937 5.24066L15.6645 5.43128C15.7261 5.44051 15.7825 5.47155 15.8232 5.51876C15.8639 5.56598 15.8863 5.62623 15.8864 5.68858V6.79795C13.6313 6.66934 11.3706 6.66934 9.11553 6.79795V5.68753C9.1156 5.62519 9.13802 5.56494 9.17874 5.51772C9.21945 5.47051 9.27575 5.43947 9.33741 5.43024L10.6082 5.24066ZM7.84366 8.45107C10.9437 8.20107 14.0582 8.20107 17.1582 8.45107L19.1082 8.60941C19.4242 8.63469 19.7226 8.76523 19.9557 8.98014C20.1887 9.19505 20.3429 9.48191 20.3937 9.79482C20.4582 10.1959 20.5134 10.5969 20.5603 11.0011C18.053 12.2355 15.2956 12.8774 12.5009 12.8774C9.70625 12.8774 6.9489 12.2355 4.44158 11.0011C4.48741 10.5979 4.54366 10.1959 4.60824 9.79482C4.65898 9.48191 4.8132 9.19505 5.04624 8.98014C5.27928 8.76523 5.57766 8.63469 5.89366 8.60941L7.84366 8.45107ZM4.30199 12.6636C6.87683 13.8342 9.6725 14.4399 12.5009 14.4399C15.3294 14.4399 18.1251 13.8342 20.6999 12.6636C20.7995 14.558 20.6968 16.4576 20.3937 18.3302C20.3431 18.6434 20.189 18.9304 19.9559 19.1456C19.7229 19.3607 19.4244 19.4914 19.1082 19.5167L17.1582 19.6729C14.0582 19.9229 10.9437 19.9229 7.84366 19.6729L5.89366 19.5167C5.57751 19.4914 5.27901 19.3607 5.04596 19.1456C4.8129 18.9304 4.65877 18.6434 4.60824 18.3302C4.30512 16.4552 4.20199 14.5552 4.30199 12.6636Z" fill="#B3B3B3"/>
</svg>
