<svg width="25" height="25" viewBox="0 0 25 25" fill="none" xmlns="http://www.w3.org/2000/svg">
<path d="M11.459 18.7499H13.5423V16.6666H11.459V18.7499ZM12.5007 2.08325C11.1327 2.08325 9.77817 2.35269 8.51437 2.87617C7.25056 3.39966 6.10223 4.16695 5.13496 5.13422C3.18145 7.08773 2.08398 9.73725 2.08398 12.4999C2.08398 15.2626 3.18145 17.9121 5.13496 19.8656C6.10223 20.8329 7.25056 21.6002 8.51437 22.1237C9.77817 22.6472 11.1327 22.9166 12.5007 22.9166C15.2633 22.9166 17.9128 21.8191 19.8663 19.8656C21.8199 17.9121 22.9173 15.2626 22.9173 12.4999C22.9173 11.132 22.6479 9.77744 22.1244 8.51363C21.6009 7.24982 20.8336 6.1015 19.8663 5.13422C18.8991 4.16695 17.7507 3.39966 16.4869 2.87617C15.2231 2.35269 13.8686 2.08325 12.5007 2.08325ZM12.5007 20.8333C7.9069 20.8333 4.16732 17.0937 4.16732 12.4999C4.16732 7.90617 7.9069 4.16659 12.5007 4.16659C17.0944 4.16659 20.834 7.90617 20.834 12.4999C20.834 17.0937 17.0944 20.8333 12.5007 20.8333ZM12.5007 6.24992C11.3956 6.24992 10.3358 6.68891 9.55437 7.47031C8.77297 8.25171 8.33398 9.31152 8.33398 10.4166H10.4173C10.4173 9.86405 10.6368 9.33415 11.0275 8.94345C11.4182 8.55275 11.9481 8.33325 12.5007 8.33325C13.0532 8.33325 13.5831 8.55275 13.9738 8.94345C14.3645 9.33415 14.584 9.86405 14.584 10.4166C14.584 12.4999 11.459 12.2395 11.459 15.6249H13.5423C13.5423 13.2812 16.6673 13.0208 16.6673 10.4166C16.6673 9.31152 16.2283 8.25171 15.4469 7.47031C14.6655 6.68891 13.6057 6.24992 12.5007 6.24992Z" fill="#B3B3B3"/>
</svg>
