<svg width="21" height="22" viewBox="0 0 21 22" fill="none" xmlns="http://www.w3.org/2000/svg">
<path d="M3.20833 11.085H1.125L10.5 1.70996L19.875 11.085H17.7917M3.20833 11.085V18.3766C3.20833 18.9292 3.42783 19.4591 3.81853 19.8498C4.20923 20.2405 4.73913 20.46 5.29167 20.46H15.7083C16.2609 20.46 16.7908 20.2405 17.1815 19.8498C17.5722 19.4591 17.7917 18.9292 17.7917 18.3766V11.085" stroke="#B3B3B3" stroke-width="2" stroke-linecap="round" stroke-linejoin="round"/>
<path d="M7.375 20.46V14.21C7.375 13.6575 7.59449 13.1276 7.98519 12.7369C8.3759 12.3462 8.9058 12.1267 9.45833 12.1267H11.5417C12.0942 12.1267 12.6241 12.3462 13.0148 12.7369C13.4055 13.1276 13.625 13.6575 13.625 14.21V20.46" stroke="#B3B3B3" stroke-width="2" stroke-linecap="round" stroke-linejoin="round"/>
</svg>
