<svg width="25" height="25" viewBox="0 0 25 25" fill="none" xmlns="http://www.w3.org/2000/svg">
<path d="M8.92893 9.87335C8.67372 9.97804 8.99663 10.1609 9.17528 10.1619C9.25654 10.1726 9.33919 10.1634 9.41609 10.135C9.493 10.1067 9.56185 10.06 9.6167 9.99913C9.67155 9.93822 9.71077 9.86489 9.73095 9.78545C9.75114 9.70601 9.7517 9.62285 9.73257 9.54314C9.57268 9.09262 8.81747 8.91137 8.22893 9.05356C7.38049 9.25929 7.05341 9.95981 7.3758 10.5114C7.79872 11.2364 9.06799 11.5093 10.0659 11.2046C11.3076 10.826 11.7669 9.76606 11.2117 8.93533C10.5451 7.93898 8.75861 7.57492 7.3633 8.04054C5.73309 8.58481 5.14195 10.0025 5.9284 11.1062C6.83049 12.3707 9.13153 12.826 10.9164 12.2004C12.9321 11.4947 13.6534 9.72127 12.6373 8.34992C11.5044 6.81919 8.69403 6.27387 6.52372 7.05721C4.12684 7.92231 3.27632 10.0473 4.51851 11.6853C5.87945 13.4791 9.19559 14.1135 11.7477 13.1739C14.5222 12.1515 15.5013 9.677 14.0341 7.77596C12.4472 5.72075 8.62893 4.99679 5.69924 6.09262C2.5482 7.27075 1.44143 10.0926 3.13257 12.2546C4.20809 13.6301 6.25445 14.553 8.49507 14.7067" stroke="#B3B3B3" stroke-linecap="round" stroke-linejoin="round"/>
<path d="M8.49414 14.7068H22.6556V19.4167H8.45768C5.01081 19.4167 2.3457 17.1198 2.3457 14.1183V9.99744M4.99466 18.4157V17.2386M6.76081 19.1224V16.7672M8.52695 19.4167V18.2396M10.2931 19.4167V17.0615M12.0587 19.4167V18.2396M13.8254 19.4167V17.0615M15.591 19.4167V18.2396M19.1233 19.4167V18.2396M17.3577 19.4167V17.0615M20.8895 19.4167V17.0615M14.7082 14.648V9.52661" stroke="#B3B3B3" stroke-linecap="round" stroke-linejoin="round"/>
</svg>
