<svg width="25" height="26" viewBox="0 0 25 26" fill="none" xmlns="http://www.w3.org/2000/svg">
<path d="M12.5007 2.58325C11.1327 2.58325 9.77817 2.85269 8.51437 3.37617C7.25056 3.89966 6.10223 4.66695 5.13496 5.63422C3.18145 7.58773 2.08398 10.2372 2.08398 12.9999C2.08398 15.7626 3.18145 18.4121 5.13496 20.3656C6.10223 21.3329 7.25056 22.1002 8.51437 22.6237C9.77817 23.1472 11.1327 23.4166 12.5007 23.4166C15.2633 23.4166 17.9128 22.3191 19.8663 20.3656C21.8199 18.4121 22.9173 15.7626 22.9173 12.9999C22.9173 11.632 22.6479 10.2774 22.1244 9.01363C21.6009 7.74982 20.8336 6.6015 19.8663 5.63422C18.8991 4.66695 17.7507 3.89966 16.4869 3.37617C15.2231 2.85269 13.8686 2.58325 12.5007 2.58325ZM7.36523 19.5416C7.81315 18.6041 10.5423 17.6874 12.5007 17.6874C14.459 17.6874 17.1882 18.6041 17.6361 19.5416C16.1768 20.7036 14.366 21.3353 12.5007 21.3333C10.5632 21.3333 8.7819 20.6666 7.36523 19.5416ZM19.1257 18.0312C17.6361 16.2187 14.0215 15.6041 12.5007 15.6041C10.9798 15.6041 7.36523 16.2187 5.87565 18.0312C4.76765 16.588 4.16713 14.8194 4.16732 12.9999C4.16732 8.40617 7.9069 4.66659 12.5007 4.66659C17.0944 4.66659 20.834 8.40617 20.834 12.9999C20.834 14.8958 20.1882 16.6458 19.1257 18.0312ZM12.5007 6.74992C10.4798 6.74992 8.85482 8.37492 8.85482 10.3958C8.85482 12.4166 10.4798 14.0416 12.5007 14.0416C14.5215 14.0416 16.1465 12.4166 16.1465 10.3958C16.1465 8.37492 14.5215 6.74992 12.5007 6.74992ZM12.5007 11.9583C12.0863 11.9583 11.6888 11.7936 11.3958 11.5006C11.1028 11.2076 10.9382 10.8102 10.9382 10.3958C10.9382 9.98135 11.1028 9.58392 11.3958 9.2909C11.6888 8.99787 12.0863 8.83325 12.5007 8.83325C12.9151 8.83325 13.3125 8.99787 13.6055 9.2909C13.8985 9.58392 14.0632 9.98135 14.0632 10.3958C14.0632 10.8102 13.8985 11.2076 13.6055 11.5006C13.3125 11.7936 12.9151 11.9583 12.5007 11.9583Z" fill="#B3B3B3"/>
</svg>
